<svg width="934" height="934" viewBox="0 0 934 934" fill="none" xmlns="http://www.w3.org/2000/svg">
<path d="M429.373 87.312C415.9 131.541 405.545 182.791 404.962 228.712C404.337 277.524 411.639 326.363 411.701 375.165C411.806 455.696 402.618 564.352 446.207 636.005C456.415 652.792 487.332 647.162 485.54 625.359C482.025 582.745 468.567 541.39 464.133 498.589C459.352 452.463 451.05 406.073 449.404 359.735C447.758 313.49 446.488 267.235 444.852 220.989C443.321 177.385 460.514 129.494 448.587 87.2954C445.852 77.6965 432.217 77.9621 429.373 87.2954L429.373 87.312Z" fill="#A855F7"/>
<path d="M278.813 446.387C295.439 488.605 318.86 526.335 346.464 562.293C373.647 597.715 405.412 639.512 442.527 665.091C477.235 689.008 505.349 649.049 529.704 627.247C570.917 590.351 617.365 555.716 651.111 511.705C665.799 492.56 637.855 468.393 619.189 479.784C588.768 498.347 563.668 524.003 537.361 547.815C510.44 572.2 482.673 606.205 451.408 624.684H478.111C441.475 608.367 406.887 565.361 380.272 536.22C350.928 504.095 324.799 469.267 297.204 435.684C290.365 427.429 274.849 436.324 278.813 446.387Z" fill="#A855F7"/>
</svg>
